<svg width="48" height="52" viewBox="0 0 48 52" fill="none" xmlns="http://www.w3.org/2000/svg">
<path d="M14.4693 28.5367C14.539 28.6109 14.6217 28.6698 14.7127 28.7099C14.8037 28.7501 14.9012 28.7708 14.9997 28.7708C15.0982 28.7708 15.1957 28.7501 15.2867 28.7099C15.3777 28.6698 15.4604 28.6109 15.53 28.5367L16.9138 27.0623C17.2717 27.1349 17.6353 27.1717 17.9996 27.1722C19.7594 27.1722 20.6809 26.2448 20.78 26.139L19.7193 25.0088L19.7279 24.9998C19.7044 25.0233 19.1386 25.5739 17.9996 25.5739C16.105 25.5739 14.7907 24.2209 14.78 24.2097C14.7104 24.1355 14.6277 24.0766 14.5367 24.0364C14.4457 23.9963 14.3482 23.9756 14.2497 23.9756C14.1512 23.9756 14.0537 23.9963 13.9627 24.0364C13.8717 24.0766 13.789 24.1355 13.7193 24.2097L12.2194 25.808C12.0801 25.9582 12.0023 26.161 12.0029 26.3721C12.0035 26.5832 12.0825 26.7855 12.2226 26.9348C12.3627 27.084 12.5526 27.1682 12.7507 27.1688C12.9488 27.1694 13.1391 27.0865 13.28 26.9381L14.3008 25.8505C14.6228 26.0974 14.9641 26.3143 15.3211 26.4987L14.4693 27.4063C14.3997 27.4806 14.3444 27.5687 14.3067 27.6656C14.269 27.7626 14.2496 27.8665 14.2496 27.9715C14.2496 28.0765 14.269 28.1804 14.3067 28.2774C14.3444 28.3743 14.3997 28.4625 14.4693 28.5367Z" fill="#59B722"/>
<path d="M28.2037 35.3269C27.5496 34.7975 25.9305 33.5656 25.0227 33.5656C24.6445 33.5776 24.2823 33.7314 24 33.9999C23.7177 33.7313 23.3555 33.5775 22.9773 33.5654C22.0695 33.5654 20.4503 34.7972 19.7962 35.3267C19.7042 35.4013 19.6295 35.4975 19.5781 35.6078C19.5268 35.7182 19.5 35.8397 19.5 35.963C19.5 37.5079 20.7217 39.9588 24 39.9588C27.2783 39.9588 28.5 37.5079 28.5 35.963C28.4999 35.8398 28.4732 35.7183 28.4218 35.6079C28.3704 35.4976 28.2958 35.4014 28.2037 35.3269ZM24 38.3605C21.7875 38.3605 21.2051 36.9956 21.0532 36.3254C21.8508 35.7191 22.677 35.2134 22.9574 35.1666C23.0472 35.212 23.2011 35.3791 23.4145 35.6634C23.4848 35.7569 23.5739 35.8324 23.6752 35.8842C23.7766 35.9361 23.8876 35.9631 24 35.9631C24.1124 35.9631 24.2234 35.9361 24.3247 35.8842C24.4261 35.8324 24.5152 35.7569 24.5854 35.6634C24.7979 35.3808 24.9511 35.2138 25.041 35.1674C25.3339 35.2208 26.1548 35.7236 26.9468 36.3255C26.7948 36.9959 26.2129 38.3605 24 38.3605Z" fill="#59B722"/>
<path d="M20.7809 21.0131C19.5085 19.6572 16.3694 19.2304 16.015 19.1862C15.986 19.1825 15.9569 19.1807 15.9277 19.1807C14.7086 19.1822 13.5064 19.4847 12.4153 20.0642C12.239 20.16 12.1053 20.3261 12.0434 20.5264C11.9816 20.7267 11.9965 20.945 12.085 21.1336C12.1735 21.3222 12.3284 21.4659 12.5159 21.5334C12.7033 21.6009 12.9083 21.5866 13.086 21.4938C13.9555 21.0318 14.9126 20.7873 15.8842 20.7788C17.029 20.9279 19.0436 21.4219 19.7202 22.1428C19.7897 22.2178 19.8724 22.2774 19.9636 22.3181C20.0548 22.3589 20.1526 22.3801 20.2515 22.3804C20.3504 22.3807 20.4483 22.3602 20.5397 22.32C20.6311 22.2799 20.7142 22.2208 20.7841 22.1463C20.854 22.0718 20.9094 21.9834 20.9471 21.886C20.9848 21.7886 21.0041 21.6842 21.0038 21.5788C21.0035 21.4735 20.9837 21.3692 20.9454 21.2721C20.9072 21.1749 20.8513 21.0868 20.7809 21.0127V21.0131Z" fill="#59B722"/>
<path d="M34.7192 26.9383C34.8601 27.0867 35.0504 27.1696 35.2485 27.169C35.4466 27.1683 35.6365 27.0842 35.7766 26.9349C35.9167 26.7857 35.9957 26.5834 35.9963 26.3723C35.9969 26.1612 35.9191 25.9584 35.7798 25.8082L34.2799 24.2098C34.1392 24.0611 33.9492 23.9775 33.7511 23.9771C33.553 23.9766 33.3627 24.0593 33.2214 24.2073C33.2085 24.221 31.8942 25.5738 29.9996 25.5738C28.8606 25.5738 28.2948 25.0233 28.2713 24.9998L28.2799 25.0088L27.2192 26.1389C27.3183 26.2449 28.2398 27.1722 29.9996 27.1722C30.3639 27.1716 30.7275 27.1348 31.0854 27.0623L32.4692 28.5367C32.6101 28.685 32.8004 28.768 32.9985 28.7673C33.1967 28.7667 33.3865 28.6826 33.5266 28.5333C33.6667 28.384 33.7457 28.1817 33.7463 27.9706C33.7469 27.7595 33.6691 27.5567 33.5299 27.4065L32.6781 26.4989C33.0351 26.3145 33.3764 26.0976 33.6984 25.8506L34.7192 26.9383Z" fill="#59B722"/>
<path d="M28.2805 22.143C28.955 21.4244 30.9711 20.9293 32.1168 20.7789C33.0883 20.7873 34.0453 21.0318 34.9148 21.4936C35.0925 21.5864 35.2974 21.6006 35.4849 21.5331C35.6724 21.4657 35.8272 21.322 35.9157 21.1333C36.0042 20.9447 36.0192 20.7265 35.9573 20.5262C35.8954 20.3259 35.7618 20.1597 35.5855 20.064C34.4944 19.4843 33.2922 19.1818 32.0731 19.1802C32.0439 19.1802 32.0147 19.182 31.9858 19.1857C31.6319 19.2299 28.4923 19.6567 27.2198 21.0127C27.0806 21.1629 27.0028 21.3657 27.0034 21.5768C27.004 21.7879 27.083 21.9902 27.2231 22.1395C27.3632 22.2887 27.553 22.3729 27.7512 22.3735C27.9493 22.3741 28.1396 22.2912 28.2805 22.1428V22.143Z" fill="#59B722"/>
<path d="M18.5233 5.73218C16.3951 6.40073 14.3744 7.40989 12.5306 8.72514C12.4486 8.78362 12.3782 8.85876 12.3235 8.94626C12.2688 9.03376 12.2309 9.13191 12.2119 9.23507C12.1928 9.33822 12.1931 9.44437 12.2126 9.54743C12.2321 9.65048 12.2705 9.74842 12.3256 9.83563C12.3807 9.92284 12.4514 9.99761 12.5337 10.0557C12.616 10.1137 12.7082 10.1539 12.805 10.1739C12.9019 10.1939 13.0015 10.1933 13.0982 10.1722C13.1948 10.1511 13.2866 10.1099 13.3683 10.051C15.0742 8.83156 16.9441 7.89567 18.9141 7.27541C19.0092 7.24807 19.0983 7.20104 19.1763 7.13701C19.2544 7.07297 19.3198 6.99318 19.3689 6.9022C19.418 6.81122 19.4498 6.71082 19.4625 6.60674C19.4752 6.50266 19.4685 6.39694 19.4428 6.29561C19.4172 6.19428 19.373 6.09933 19.3129 6.01617C19.2528 5.93302 19.178 5.86329 19.0926 5.81097C19.0072 5.75865 18.913 5.72477 18.8153 5.71125C18.7176 5.69773 18.6184 5.70484 18.5233 5.73218Z" fill="#59B722"/>
<path d="M34.8348 12.6071C30.1885 12.1024 27.038 10.6023 25.2132 9.43281C25.0428 9.3253 24.8394 9.29395 24.6474 9.34562C24.4554 9.39728 24.2904 9.52776 24.1883 9.70858C24.0863 9.88941 24.0555 10.1059 24.1026 10.3108C24.1498 10.5158 24.2711 10.6925 24.4401 10.8025C26.3959 12.056 29.7606 13.6626 34.6827 14.1973C36.2785 14.3658 37.7583 15.1615 38.8336 16.4292C39.909 17.697 40.5027 19.346 40.4992 21.0548C40.4992 21.2667 40.5782 21.47 40.7189 21.6199C40.8595 21.7698 41.0503 21.854 41.2492 21.854C41.4481 21.854 41.6389 21.7698 41.7795 21.6199C41.9202 21.47 41.9992 21.2667 41.9992 21.0548C42.0036 18.9498 41.2723 16.9185 39.9479 15.3568C38.6234 13.7951 36.8006 12.8149 34.8348 12.6071Z" fill="#59B722"/>
<path d="M41.25 23.9756C41.0511 23.9756 40.8603 24.0598 40.7197 24.2097C40.579 24.3595 40.5 24.5628 40.5 24.7748V27.9715C40.5 28.1834 40.579 28.3867 40.7197 28.5366C40.8603 28.6864 41.0511 28.7706 41.25 28.7706C41.4489 28.7706 41.6397 28.6864 41.7803 28.5366C41.921 28.3867 42 28.1834 42 27.9715V24.7748C42 24.5628 41.921 24.3595 41.7803 24.2097C41.6397 24.0598 41.4489 23.9756 41.25 23.9756Z" fill="#59B722"/>
<path d="M27.4799 42.465C26.0408 43.0548 24.4904 43.27 22.9575 43.0929C21.4246 42.9158 19.9534 42.3515 18.6663 41.4469C14.9409 38.8258 10.5 34.7752 10.5 30.3629V20.7787C10.5 17.5952 12.0177 14.8859 15.0109 12.7261C16.3287 11.7917 17.756 11.0459 19.2562 10.5078C20.4923 11.9234 25.056 16.3649 34.3791 17.3781C35.235 17.4681 36.0288 17.8944 36.6058 18.5741C37.1827 19.2537 37.5015 20.138 37.4999 21.0545V27.9713C37.4999 28.1833 37.5789 28.3866 37.7196 28.5365C37.8602 28.6863 38.051 28.7705 38.2499 28.7705C38.4488 28.7705 38.6396 28.6863 38.7802 28.5365C38.9209 28.3866 38.9999 28.1833 38.9999 27.9713V21.0545C39.0024 19.7418 38.5461 18.4752 37.7199 17.5016C36.8937 16.528 35.7568 15.9171 34.5309 15.7881C29.1917 15.2078 25.5497 13.4192 23.4348 12.0209C21.1453 10.5072 20.1009 9.11174 20.0919 9.09955C20.0012 8.97528 19.8781 8.88233 19.738 8.83235C19.5979 8.78238 19.447 8.77761 19.3044 8.81864C17.4947 9.39586 15.7762 10.2581 14.2058 11.3767C10.8 13.8203 9 17.0715 9 20.7787V30.3629C9 35.486 13.8071 39.943 17.8397 42.7806C19.3263 43.8256 21.0256 44.4775 22.7962 44.682C24.5668 44.8865 26.3577 44.6377 28.0199 43.9563C28.1118 43.9185 28.1958 43.8618 28.2672 43.7895C28.3385 43.7171 28.3957 43.6304 28.4356 43.5345C28.4755 43.4385 28.4973 43.3351 28.4997 43.2302C28.5021 43.1253 28.4851 43.0209 28.4497 42.923C28.4142 42.8251 28.361 42.7355 28.2931 42.6595C28.2252 42.5835 28.1439 42.5225 28.0538 42.48C27.9638 42.4375 27.8667 42.4143 27.7683 42.4117C27.6698 42.4091 27.5718 42.4273 27.4799 42.465Z" fill="#59B722"/>
<path d="M35.3596 4.87402C35.5313 4.98119 35.7359 5.0113 35.9284 4.95772C36.1209 4.90414 36.2856 4.77126 36.3862 4.58831C36.4867 4.40537 36.515 4.18735 36.4647 3.9822C36.4144 3.77706 36.2897 3.60161 36.118 3.49444C32.4431 1.20057 28.2599 -0.00580824 24.0009 2.10256e-05H23.9999C22.3755 -0.000395827 20.7551 0.173639 19.1634 0.519488C16.0935 1.18954 13.1774 2.49709 10.5816 4.36754C8.02606 6.2074 5.82539 8.55238 4.09876 11.2755C1.4211 15.4974 -0.00665558 20.4781 2.33257e-05 25.5738V50.3484C2.33257e-05 50.5603 0.0790407 50.7636 0.219693 50.9135C0.360344 51.0634 0.551109 51.1476 0.750021 51.1476C0.948933 51.1476 1.1397 51.0634 1.28035 50.9135C1.421 50.7636 1.50002 50.5603 1.50002 50.3484V25.5738C1.50099 21.3541 2.54683 17.2094 4.53193 13.5582C6.51703 9.90695 9.3711 6.8785 12.806 4.77864C16.2408 2.67877 20.1348 1.58182 24.0948 1.59857C28.0548 1.61532 31.9405 2.74517 35.3596 4.87402Z" fill="#59B722"/>
<path d="M47.5141 20.4323C46.5733 15.5436 44.3088 11.0558 41.0005 7.52353C40.8589 7.3797 40.6702 7.30049 40.4747 7.30278C40.2791 7.30508 40.0921 7.3887 39.9535 7.53581C39.815 7.68293 39.7358 7.8819 39.733 8.09029C39.7301 8.29869 39.8038 8.50003 39.9383 8.65138C42.0253 10.8716 43.6795 13.5099 44.8056 16.4142C45.9317 19.3185 46.5075 22.4316 46.4998 25.574V32.7666C46.4998 32.9786 46.5789 33.1819 46.7195 33.3317C46.8602 33.4816 47.0509 33.5658 47.2498 33.5658C47.4487 33.5658 47.6395 33.4816 47.7802 33.3317C47.9208 33.1819 47.9998 32.9786 47.9998 32.7666V25.574C48.0003 23.8471 47.8376 22.1245 47.5141 20.4323Z" fill="#59B722"/>
<path d="M37.7635 6.60522C37.9211 6.72824 38.1175 6.78088 38.311 6.75192C38.5045 6.72297 38.6797 6.61472 38.7994 6.4502C38.9191 6.28569 38.9738 6.07789 38.952 5.87103C38.9301 5.66416 38.8333 5.47456 38.6822 5.34257L38.6814 5.34157C38.6038 5.2745 38.5144 5.22463 38.4184 5.19489C38.3225 5.16515 38.2219 5.15614 38.1226 5.1684C38.0234 5.18065 37.9274 5.21392 37.8404 5.26625C37.7533 5.31858 37.677 5.38892 37.6159 5.47313C37.5547 5.55734 37.5099 5.65372 37.4842 5.75661C37.4585 5.85951 37.4524 5.96684 37.4661 6.07231C37.4799 6.17778 37.5133 6.27925 37.5644 6.37076C37.6155 6.46228 37.6832 6.54199 37.7636 6.60522H37.7635Z" fill="#59B722"/>
<path d="M6.74951 23.9756C6.55068 23.9759 6.36007 24.0602 6.21948 24.21C6.07889 24.3598 5.99978 24.5629 5.99951 24.7748V40.7584C5.99951 40.9703 6.07853 41.1736 6.21918 41.3235C6.35983 41.4734 6.5506 41.5576 6.74951 41.5576C6.94842 41.5576 7.13919 41.4734 7.27984 41.3235C7.42049 41.1736 7.49951 40.9703 7.49951 40.7584V24.7748C7.49923 24.5629 7.42013 24.3598 7.27954 24.21C7.13894 24.0602 6.94834 23.9759 6.74951 23.9756Z" fill="#59B722"/>
<path d="M6.74951 43.1558C6.55068 43.1561 6.36007 43.2403 6.21948 43.3902C6.07889 43.54 5.99978 43.7431 5.99951 43.9549V50.3483C5.99951 50.5603 6.07853 50.7636 6.21918 50.9134C6.35983 51.0633 6.5506 51.1475 6.74951 51.1475C6.94842 51.1475 7.13919 51.0633 7.27984 50.9134C7.42049 50.7636 7.49951 50.5603 7.49951 50.3483V43.9549C7.49923 43.7431 7.42013 43.54 7.27954 43.3902C7.13894 43.2403 6.94834 43.1561 6.74951 43.1558Z" fill="#59B722"/>
<path d="M9.75 38.3608C9.55117 38.3611 9.36056 38.4454 9.21997 38.5952C9.07938 38.745 9.00027 38.9481 9 39.16V50.3485C9 50.5604 9.07902 50.7637 9.21967 50.9136C9.36032 51.0634 9.55109 51.1476 9.75 51.1476C9.94891 51.1476 10.1397 51.0634 10.2803 50.9136C10.421 50.7637 10.5 50.5604 10.5 50.3485V39.16C10.4997 38.9481 10.4206 38.745 10.28 38.5952C10.1394 38.4454 9.94883 38.3611 9.75 38.3608Z" fill="#59B722"/>
<path d="M3.75 25.5737C3.55117 25.574 3.36056 25.6583 3.21997 25.8081C3.07938 25.9579 3.00027 26.161 3 26.3729V27.9713C3 28.1832 3.07902 28.3865 3.21967 28.5364C3.36032 28.6862 3.55109 28.7704 3.75 28.7704C3.94891 28.7704 4.13967 28.6862 4.28033 28.5364C4.42098 28.3865 4.49999 28.1832 4.49999 27.9713V26.3729C4.49972 26.161 4.42062 25.9579 4.28002 25.8081C4.13943 25.6583 3.94883 25.574 3.75 25.5737Z" fill="#59B722"/>
<path d="M3.75 30.3691C3.55117 30.3694 3.36056 30.4537 3.21997 30.6035C3.07938 30.7533 3.00027 30.9565 3 31.1683V47.1518C3 47.3638 3.07902 47.567 3.21967 47.7169C3.36032 47.8668 3.55109 47.951 3.75 47.951C3.94891 47.951 4.13967 47.8668 4.28033 47.7169C4.42098 47.567 4.49999 47.3638 4.49999 47.1518V31.1683C4.49972 30.9565 4.42062 30.7533 4.28002 30.6035C4.13943 30.4537 3.94883 30.3694 3.75 30.3691Z" fill="#59B722"/>
<path d="M3.75 51.1476C4.16421 51.1476 4.49999 50.7898 4.49999 50.3484C4.49999 49.9071 4.16421 49.5493 3.75 49.5493C3.33579 49.5493 3 49.9071 3 50.3484C3 50.7898 3.33579 51.1476 3.75 51.1476Z" fill="#59B722"/>
<path d="M6.74951 22.3772C7.16372 22.3772 7.49951 22.0194 7.49951 21.578C7.49951 21.1366 7.16372 20.7788 6.74951 20.7788C6.3353 20.7788 5.99951 21.1366 5.99951 21.578C5.99951 22.0194 6.3353 22.3772 6.74951 22.3772Z" fill="#59B722"/>
<path d="M47.2494 41.5577H46.4995V39.1601C46.4995 38.9482 46.4204 38.7449 46.2798 38.595C46.1391 38.4451 45.9484 38.3609 45.7495 38.3609H44.9995V37.5618C44.9974 35.6548 44.2856 33.8266 43.0202 32.4782C41.7548 31.1298 40.0391 30.3713 38.2495 30.3691C38.1306 30.3691 38.0135 30.3992 37.9077 30.4569C37.8019 30.5146 37.7105 30.5983 37.641 30.701C37.5715 30.8037 37.5259 30.9226 37.508 31.0478C37.4901 31.173 37.5003 31.3009 37.5379 31.4211L38.0893 33.1835C38.1601 33.4097 38.1794 33.6506 38.1456 33.8863C38.1119 34.122 38.0261 34.3459 37.8952 34.5393C37.7644 34.7327 37.5923 34.8903 37.3931 34.9989C37.1939 35.1076 36.9733 35.1642 36.7495 35.1642C35.8854 35.1654 35.0481 35.484 34.3788 36.0663C33.7094 36.6486 33.2489 37.459 33.075 38.3609H32.2495C32.0506 38.3609 31.8598 38.4451 31.7192 38.595C31.5785 38.7449 31.4995 38.9482 31.4995 39.1601V41.5577H30.7495C30.5506 41.5577 30.3598 41.6419 30.2192 41.7917C30.0785 41.9416 29.9995 42.1449 29.9995 42.3568V47.9511C30.0004 48.7986 30.3168 49.6112 30.8792 50.2105C31.4416 50.8098 32.2041 51.1469 32.9995 51.1478H44.9995C45.7948 51.1469 46.5574 50.8098 47.1198 50.2105C47.6822 49.6112 47.9986 48.7986 47.9994 47.9511V42.3568C47.9994 42.1449 47.9204 41.9416 47.7798 41.7917C47.6391 41.6419 47.4484 41.5577 47.2494 41.5577ZM36.7495 36.7626H40.4995C40.6984 36.7626 40.8891 36.6784 41.0298 36.5285C41.1705 36.3786 41.2495 36.1754 41.2495 35.9634C41.2495 35.7514 41.1705 35.5482 41.0298 35.3983C40.8891 35.2484 40.6984 35.1642 40.4995 35.1642H39.297C39.4947 34.7891 39.616 34.3739 39.6532 33.9455C39.6903 33.5172 39.6425 33.0853 39.5127 32.678L39.3274 32.086C40.5062 32.3514 41.5638 33.0401 42.3232 34.0368C43.0826 35.0335 43.4979 36.2779 43.4995 37.5618V38.3609H34.6285C34.784 37.8939 35.0714 37.4895 35.4511 37.2033C35.8309 36.9172 36.2844 36.7632 36.7495 36.7626ZM32.9995 39.9593H44.9995V41.5577H32.9995V39.9593ZM46.4995 47.9511C46.499 48.3748 46.3408 48.7811 46.0596 49.0807C45.7784 49.3804 45.3971 49.5489 44.9995 49.5494H32.9995C32.6018 49.5489 32.2206 49.3804 31.9394 49.0807C31.6582 48.7811 31.5 48.3748 31.4995 47.9511V43.156H46.4995V47.9511Z" fill="#59B722"/>
<path d="M35.9995 47.1516C36.4137 47.1516 36.7495 46.7938 36.7495 46.3524C36.7495 45.911 36.4137 45.5532 35.9995 45.5532C35.5853 45.5532 35.2495 45.911 35.2495 46.3524C35.2495 46.7938 35.5853 47.1516 35.9995 47.1516Z" fill="#59B722"/>
<path d="M38.9995 47.1516C39.4137 47.1516 39.7494 46.7938 39.7494 46.3524C39.7494 45.911 39.4137 45.5532 38.9995 45.5532C38.5853 45.5532 38.2495 45.911 38.2495 46.3524C38.2495 46.7938 38.5853 47.1516 38.9995 47.1516Z" fill="#59B722"/>
<path d="M42 47.1516C42.4142 47.1516 42.75 46.7938 42.75 46.3524C42.75 45.911 42.4142 45.5532 42 45.5532C41.5858 45.5532 41.25 45.911 41.25 46.3524C41.25 46.7938 41.5858 47.1516 42 47.1516Z" fill="#59B722"/>
</svg>
