<svg width="48" height="49" viewBox="0 0 48 49" fill="none" xmlns="http://www.w3.org/2000/svg">
<path d="M36.9844 38.6927C36.9032 38.637 36.8118 38.5979 36.7154 38.5775C36.619 38.5571 36.5196 38.556 36.4228 38.574C36.326 38.5921 36.2337 38.629 36.1511 38.6827C36.0686 38.7365 35.9974 38.8059 35.9417 38.8872C34.5708 40.8854 32.3477 42.9075 29.3335 44.8979C27.7517 45.945 25.8968 46.5033 23.9999 46.5033C22.103 46.5033 20.2481 45.945 18.6664 44.8979C14.9409 42.4375 10.5 38.6361 10.5 34.4954V24.751C10.5 24.5521 10.421 24.3613 10.2803 24.2206C10.1397 24.08 9.94891 24.001 9.75 24.001C9.55109 24.001 9.36032 24.08 9.21967 24.2206C9.07902 24.3613 9 24.5521 9 24.751V34.4954C9 39.3032 13.8071 43.486 17.8398 46.149C19.6667 47.3583 21.8091 48.0032 24 48.0032C26.1909 48.0032 28.3333 47.3583 30.1601 46.149C33.3365 44.052 35.6978 41.8941 37.1783 39.7353C37.2908 39.5714 37.3336 39.3694 37.2972 39.1739C37.2609 38.9784 37.1483 38.8053 36.9844 38.6927Z" fill="#59B722"/>
<path d="M12.2197 29.7813C12.2893 29.851 12.372 29.9062 12.463 29.9439C12.554 29.9816 12.6515 30.001 12.75 30.001C12.8485 30.001 12.9461 29.9816 13.0371 29.9439C13.128 29.9062 13.2107 29.851 13.2804 29.7813L14.3011 28.7606C14.6231 28.9924 14.9645 29.1959 15.3215 29.3689L14.4697 30.2207C14.329 30.3613 14.25 30.5521 14.25 30.751C14.25 30.9499 14.329 31.1407 14.4697 31.2813C14.6103 31.422 14.8011 31.501 15 31.501C15.1989 31.501 15.3897 31.422 15.5304 31.2813L16.914 29.8976C17.272 29.9658 17.6356 30.0005 18 30.001C19.7599 30.001 20.6813 29.1305 20.7804 29.0313L19.7197 27.9707L19.7283 27.9622C19.7048 27.9843 19.139 28.501 18 28.501C16.1053 28.501 14.7911 27.2313 14.7804 27.2207C14.7107 27.151 14.628 27.0958 14.5371 27.0581C14.4461 27.0204 14.3485 27.001 14.25 27.001C14.1515 27.001 14.054 27.0204 13.963 27.0581C13.872 27.0958 13.7893 27.151 13.7197 27.2207L12.2197 28.7207C12.15 28.7903 12.0948 28.873 12.0571 28.964C12.0194 29.055 12 29.1525 12 29.251C12 29.3495 12.0194 29.447 12.0571 29.538C12.0948 29.629 12.15 29.7117 12.2197 29.7813Z" fill="#59B722"/>
<path d="M19.5 39.751C19.5 41.2008 20.7217 43.501 24 43.501C27.2784 43.501 28.5 41.2008 28.5 39.751C28.5 39.6353 28.4733 39.5213 28.4219 39.4177C28.3705 39.3141 28.2958 39.2238 28.2038 39.1538C27.5497 38.6569 25.9305 37.501 25.0227 37.501C24.6445 37.5122 24.2824 37.6565 24 37.9084C23.7176 37.6565 23.3555 37.5122 22.9773 37.501C22.0695 37.501 20.4503 38.6568 19.7963 39.1538C19.7042 39.2238 19.6295 39.3141 19.5781 39.4177C19.5267 39.5213 19.5 39.6353 19.5 39.751ZM22.9574 39.0034C23.0472 39.0462 23.2012 39.2028 23.4145 39.4697C23.4848 39.5575 23.5739 39.6283 23.6752 39.677C23.7766 39.7257 23.8876 39.751 24 39.751C24.1124 39.751 24.2234 39.7257 24.3248 39.677C24.4261 39.6283 24.5152 39.5575 24.5855 39.4697C24.7978 39.2044 24.9511 39.0479 25.0409 39.0043C25.334 39.0543 26.1549 39.5263 26.9469 40.0911C26.7949 40.7201 26.213 42.001 24 42.001C21.787 42.001 21.2051 40.7201 21.0532 40.0911C21.8509 39.522 22.677 39.0479 22.9574 39.0034Z" fill="#59B722"/>
<path d="M16.014 22.506C15.9851 22.5027 15.9559 22.501 15.9268 22.501C14.7076 22.5024 13.5053 22.7863 12.4142 23.3302C12.2379 23.4201 12.1043 23.576 12.0424 23.764C11.9806 23.952 11.9956 24.1568 12.0841 24.3338C12.1726 24.5108 12.3275 24.6457 12.515 24.709C12.7025 24.7723 12.9074 24.7589 13.0851 24.6718C13.9547 24.2383 14.9117 24.0089 15.8833 24.001C17.0279 24.1409 19.0426 24.6045 19.7193 25.2812C19.86 25.4219 20.0507 25.5009 20.2497 25.5009C20.4486 25.5009 20.6394 25.4219 20.78 25.2812C20.9207 25.1406 20.9997 24.9498 20.9997 24.7509C20.9997 24.552 20.9207 24.3612 20.78 24.2205C19.5074 22.9482 16.3678 22.5479 16.014 22.506Z" fill="#59B722"/>
<path d="M36.3171 5.16841C36.3994 5.2224 36.4915 5.25966 36.5882 5.27804C36.6849 5.29643 36.7843 5.29559 36.8806 5.27556C36.977 5.25554 37.0685 5.21673 37.1499 5.16134C37.2312 5.10596 37.3009 5.03509 37.3549 4.95278C37.4363 4.82877 37.4792 4.68337 37.478 4.535C37.4768 4.38663 37.4316 4.24194 37.3482 4.11925C37.2648 3.99656 37.1468 3.90137 37.0092 3.84574C36.8717 3.7901 36.7207 3.77651 36.5755 3.8067C36.4302 3.83688 36.2971 3.90948 36.1931 4.0153C36.0891 4.12113 36.0188 4.25542 35.9912 4.4012C35.9635 4.54697 35.9797 4.69768 36.0377 4.83425C36.0957 4.97081 36.193 5.0871 36.3171 5.16841Z" fill="#59B722"/>
<path d="M0.750001 26.209C0.551088 26.209 0.360323 26.288 0.21967 26.4287C0.0790177 26.5693 0 26.7601 0 26.959L0 47.2512C0 47.4501 0.0790177 47.6409 0.21967 47.7815C0.360323 47.9222 0.551088 48.0012 0.750001 48.0012C0.948913 48.0012 1.13968 47.9222 1.28033 47.7815C1.42098 47.6409 1.5 47.4501 1.5 47.2512V26.959C1.5 26.7601 1.42098 26.5693 1.28033 26.4287C1.13968 26.288 0.948913 26.209 0.750001 26.209Z" fill="#59B722"/>
<path d="M24 1.50074C27.3932 1.49136 30.7437 2.25708 33.796 3.7395C33.8976 3.7889 34.0092 3.81454 34.1222 3.8145C34.2632 3.81406 34.4013 3.77413 34.5208 3.69924C34.6402 3.62434 34.7363 3.51747 34.7982 3.39075C34.8846 3.21171 34.8964 3.00568 34.831 2.81793C34.7656 2.63018 34.6284 2.47608 34.4494 2.38949C32.8521 1.61548 31.1732 1.02243 29.4441 0.621368C23.9383 -0.655531 18.1587 0.0489834 13.1209 2.6111C8.08304 5.17321 4.10946 9.42897 1.89844 14.6304C1.28359 16.0796 0.813497 17.586 0.495003 19.1276C0.168419 20.7166 0.00258299 22.3345 2.5878e-06 23.9567C-0.00025641 24.0552 0.0189282 24.1528 0.0564574 24.2439C0.0939865 24.3351 0.149123 24.4179 0.218707 24.4876C0.28829 24.5574 0.370955 24.6127 0.461963 24.6505C0.552972 24.6882 0.650536 24.7077 0.749066 24.7076H0.750003C0.948493 24.7073 1.13879 24.6285 1.27932 24.4883C1.41985 24.3481 1.49919 24.158 1.5 23.9595C1.52157 11.5751 11.6147 1.49981 24 1.50074Z" fill="#59B722"/>
<path d="M47.4113 18.6957C46.6528 15.3389 45.1782 12.1854 43.0885 9.45103C42.0619 8.10633 40.8967 6.8733 39.6122 5.77228C39.461 5.64315 39.2648 5.57922 39.0666 5.59451C38.8684 5.6098 38.6843 5.70306 38.5547 5.85384C38.4253 6.00489 38.3612 6.20116 38.3765 6.39948C38.3918 6.5978 38.4852 6.78192 38.6363 6.91134C41.1031 9.02335 43.0833 11.6445 44.4407 14.5945C45.7982 17.5446 46.5007 20.7536 46.5 24.001V47.2511C46.5 47.45 46.5791 47.6407 46.7197 47.7814C46.8604 47.922 47.0511 48.0011 47.25 48.0011C47.449 48.0011 47.6397 47.922 47.7804 47.7814C47.921 47.6407 48 47.45 48 47.2511V24.001C48.0007 22.2163 47.8033 20.4369 47.4113 18.6957Z" fill="#59B722"/>
<path d="M26.25 21.001C26.4489 21.001 26.6397 20.922 26.7803 20.7813C26.921 20.6407 27 20.4499 27 20.251V14.251C27 14.0521 26.921 13.8613 26.7803 13.7206C26.6397 13.58 26.4489 13.501 26.25 13.501C26.0511 13.501 25.8603 13.58 25.7197 13.7206C25.579 13.8613 25.5 14.0521 25.5 14.251V20.251C25.5 20.4499 25.579 20.6407 25.7197 20.7813C25.8603 20.922 26.0511 21.001 26.25 21.001Z" fill="#59B722"/>
<path d="M44.0348 42.7507C44.0775 42.7506 44.1201 42.747 44.1622 42.7399C44.2593 42.7233 44.3521 42.6877 44.4355 42.6352C44.5188 42.5827 44.591 42.5143 44.6479 42.4339C44.7048 42.3535 44.7453 42.2627 44.7671 42.1667C44.789 42.0706 44.7916 41.9712 44.775 41.8741C44.5414 40.5083 44.1267 39.1796 43.542 37.9234C43.502 37.8317 43.444 37.749 43.3715 37.6801C43.2991 37.6112 43.2136 37.5575 43.12 37.5221C43.0265 37.4867 42.9268 37.4704 42.8269 37.4742C42.7269 37.4779 42.6288 37.5015 42.5381 37.5438C42.4474 37.586 42.3661 37.6459 42.299 37.72C42.2318 37.7941 42.1802 37.8809 42.1471 37.9752C42.1139 38.0696 42.1 38.1696 42.1061 38.2694C42.1122 38.3693 42.1383 38.4669 42.1826 38.5565C42.7111 39.6918 43.0859 40.8926 43.297 42.127C43.3267 42.3013 43.4171 42.4594 43.5521 42.5735C43.6871 42.6876 43.858 42.7503 44.0348 42.7507Z" fill="#59B722"/>
<path d="M33.1595 29.363C31.671 28.9874 30.3186 28.1998 29.2575 27.0904C28.1964 25.981 27.4697 24.5948 27.1608 23.0911C27.142 22.9939 27.1041 22.9015 27.0494 22.819C26.9946 22.7366 26.9241 22.6658 26.8419 22.6107C26.7597 22.5557 26.6674 22.5174 26.5703 22.4982C26.4733 22.479 26.3733 22.4791 26.2763 22.4987C26.1793 22.5182 26.0872 22.5568 26.0051 22.6121C25.9231 22.6675 25.8528 22.7385 25.7984 22.8211C25.7439 22.9038 25.7063 22.9963 25.6878 23.0935C25.6693 23.1908 25.6702 23.2907 25.6905 23.3875C26.0563 25.1688 26.917 26.8109 28.1738 28.1252C29.4306 29.4395 31.0325 30.3727 32.7957 30.8178C35.9725 31.613 38.7758 33.4841 40.7288 36.1129C40.7872 36.1927 40.8607 36.2602 40.9453 36.3115C41.0298 36.3628 41.1237 36.3968 41.2215 36.4117C41.3192 36.4266 41.419 36.422 41.5149 36.3982C41.6109 36.3744 41.7012 36.3318 41.7807 36.2729C41.8601 36.2141 41.9272 36.1401 41.9779 36.0552C42.0287 35.9704 42.0622 35.8763 42.0764 35.7784C42.0907 35.6806 42.0855 35.5809 42.0611 35.4851C42.0366 35.3892 41.9935 35.2992 41.9342 35.2201C39.774 32.3124 36.6734 30.2427 33.1595 29.363Z" fill="#59B722"/>
<path d="M16.5 14.251C16.5 14.4499 16.579 14.6407 16.7197 14.7813C16.8603 14.922 17.0511 15.001 17.25 15.001C17.4489 15.001 17.6397 14.922 17.7803 14.7813C17.921 14.6407 18 14.4499 18 14.251C18.0011 13.2568 18.3966 12.3036 19.0996 11.6006C19.8026 10.8975 20.7558 10.5021 21.75 10.501C21.9489 10.501 22.1397 10.422 22.2803 10.2813C22.421 10.1407 22.5 9.94989 22.5 9.75098C22.5 9.55206 22.421 9.3613 22.2803 9.22065C22.1397 9.07999 21.9489 9.00098 21.75 9.00098C20.3581 9.00256 19.0237 9.5562 18.0394 10.5404C17.0552 11.5246 16.5016 12.8591 16.5 14.251Z" fill="#59B722"/>
<path d="M32.4319 32.2734C30.0221 31.6738 27.8824 30.2846 26.3542 28.3273C24.826 26.3699 23.9972 23.9572 24 21.474V14.251C24 13.6542 23.7629 13.0819 23.341 12.66C22.919 12.238 22.3467 12.001 21.75 12.001C21.1533 12.001 20.581 12.238 20.159 12.66C19.737 13.0819 19.5 13.6542 19.5 14.251V15.751C19.5 16.5813 18.5494 16.8062 16.2152 17.1556C14.1768 17.4608 11.6402 17.8406 9.59182 19.3855C7.17485 21.2085 5.99998 24.1903 5.99998 28.501V34.4541C5.99835 38.2859 4.99844 42.0512 3.09879 45.3789C3.00043 45.5516 2.97463 45.7563 3.02706 45.948C3.07948 46.1397 3.20585 46.3027 3.3784 46.4013C3.55095 46.4999 3.75557 46.526 3.94734 46.4738C4.1391 46.4217 4.30233 46.2955 4.40116 46.1231C6.4302 42.5687 7.49822 38.5469 7.49998 34.4541V28.501C7.49998 19.977 12.4555 19.2352 16.4374 18.6391C17.607 18.464 18.6171 18.3128 19.4102 17.9748C20.4651 17.5253 21 16.7771 21 15.751V14.251C21 14.0521 21.079 13.8613 21.2197 13.7206C21.3603 13.58 21.5511 13.501 21.75 13.501C21.9489 13.501 22.1397 13.58 22.2803 13.7206C22.421 13.8613 22.5 14.0521 22.5 14.251V21.474C22.4968 24.2919 23.4373 27.0297 25.1715 29.2507C26.9056 31.4718 29.3336 33.0482 32.0681 33.7286C34.4779 34.3282 36.6176 35.7174 38.1458 37.6747C39.674 39.6321 40.5028 42.0448 40.5 44.528V47.251C40.5 47.4499 40.579 47.6407 40.7197 47.7813C40.8603 47.922 41.0511 48.001 41.25 48.001C41.4489 48.001 41.6397 47.922 41.7803 47.7813C41.921 47.6407 42 47.4499 42 47.251V44.528C42.0032 41.7101 41.0627 38.9723 39.3285 36.7513C37.5944 34.5302 35.1664 32.9538 32.4319 32.2734Z" fill="#59B722"/>
<path d="M44.25 46.501C44.6642 46.501 45 46.1652 45 45.751C45 45.3368 44.6642 45.001 44.25 45.001C43.8358 45.001 43.5 45.3368 43.5 45.751C43.5 46.1652 43.8358 46.501 44.25 46.501Z" fill="#59B722"/>
<path d="M24.75 10.501C25.1642 10.501 25.5 10.1652 25.5 9.75098C25.5 9.33676 25.1642 9.00098 24.75 9.00098C24.3358 9.00098 24 9.33676 24 9.75098C24 10.1652 24.3358 10.501 24.75 10.501Z" fill="#59B722"/>
</svg>
