<svg width="48" height="49" viewBox="0 0 48 49" fill="none" xmlns="http://www.w3.org/2000/svg">
<path d="M27.0566 21.6756C27.9012 22.5329 28.9079 23.2137 30.0181 23.6782C31.1283 24.1427 32.3198 24.3817 33.5233 24.3813H33.5262C34.7295 24.3816 35.9208 24.1425 37.0309 23.678C38.1409 23.2135 39.1474 22.5328 39.9919 21.6756C41.7099 19.9401 42.6716 17.5956 42.6672 15.1536C42.6483 14.4062 42.5147 13.6661 42.271 12.9593C41.9989 12.1465 41.6666 11.3551 41.2767 10.5917C40.2786 8.60026 38.7671 6.25644 36.7843 3.62405C35.3662 1.74309 34.2281 0.412604 34.1033 0.266889L34.1014 0.264032C34.0298 0.181098 33.9412 0.11458 33.8415 0.0690148C33.7419 0.0234499 33.6336 -9.01384e-05 33.524 2.59373e-07C33.4145 9.06572e-05 33.3062 0.0238094 33.2067 0.0695387C33.1071 0.115268 33.0186 0.181932 32.9471 0.264984L32.9443 0.267842C32.7176 0.532605 30.6642 2.93833 28.609 5.91263C28.4942 6.07896 28.4502 6.28408 28.4866 6.48287C28.523 6.68166 28.637 6.85784 28.8033 6.97264C28.9696 7.08744 29.1747 7.13146 29.3735 7.09503C29.5723 7.05859 29.7485 6.94468 29.8633 6.77835C30.949 5.20691 32.0452 3.78786 32.7738 2.87452C33.0281 2.55452 33.2814 2.24309 33.5243 1.94785C34.3471 2.94595 35.95 4.95167 37.4767 7.20311C38.5729 8.82027 39.4395 10.285 40.0538 11.5574C40.7633 13.0146 41.151 14.2917 41.1433 15.1536C41.1502 17.1947 40.3466 19.1551 38.909 20.6041C38.2056 21.3178 37.3673 21.8846 36.4429 22.2714C35.5185 22.6583 34.5264 22.8575 33.5243 22.8575C32.5222 22.8575 31.5301 22.6583 30.6056 22.2714C29.6812 21.8846 28.8429 21.3178 28.1395 20.6041C26.7017 19.1553 25.8981 17.1948 25.9052 15.1536C25.8995 14.3622 26.2271 13.2117 26.8271 11.9127C26.911 11.729 26.9186 11.5196 26.8482 11.3303C26.7779 11.141 26.6353 10.9874 26.4518 10.9031C26.3525 10.857 26.2442 10.8332 26.1347 10.8336C25.9888 10.8337 25.846 10.8756 25.7233 10.9545C25.6006 11.0333 25.503 11.1457 25.4423 11.2784C24.7233 12.8565 24.3861 14.0879 24.3814 15.1536C24.3769 17.5956 25.3386 19.9401 27.0566 21.6756Z" fill="#59B722"/>
<path d="M27.1828 9.55954C27.3119 9.63712 27.4611 9.67468 27.6115 9.66748C27.762 9.66028 27.907 9.60864 28.0281 9.51909C28.1492 9.42954 28.2411 9.3061 28.2921 9.16436C28.343 9.02262 28.3509 8.86895 28.3146 8.72276C28.2783 8.57657 28.1994 8.44442 28.088 8.34302C27.9766 8.24162 27.8377 8.17551 27.6887 8.15305C27.5398 8.13059 27.3875 8.15278 27.2512 8.21683C27.1149 8.28087 27.0006 8.38389 26.9228 8.51287C26.9228 8.51312 26.9227 8.51336 26.9225 8.51354C26.9223 8.51372 26.922 8.51382 26.9218 8.51382C26.8181 8.68718 26.7873 8.89459 26.8362 9.0906C26.8851 9.28662 27.0097 9.45525 27.1828 9.55954Z" fill="#59B722"/>
<path d="M36.5722 20.3595C36.7301 20.3596 36.884 20.3105 37.0126 20.2189C37.8193 19.6434 38.4768 18.8834 38.9302 18.0023C39.3837 17.1212 39.6199 16.1444 39.6192 15.1535C39.6192 14.9514 39.5389 14.7576 39.396 14.6148C39.2532 14.4719 39.0594 14.3916 38.8573 14.3916C38.6552 14.3916 38.4614 14.4719 38.3185 14.6148C38.1757 14.7576 38.0954 14.9514 38.0954 15.1535C38.0963 15.9012 37.9184 16.6382 37.5766 17.3032C37.2348 17.9682 36.739 18.5418 36.1305 18.9763C35.9987 19.0699 35.9 19.203 35.8488 19.3563C35.7976 19.5097 35.7965 19.6754 35.8457 19.8294C35.8949 19.9834 35.9918 20.1178 36.1224 20.2131C36.253 20.3084 36.4105 20.3597 36.5722 20.3595Z" fill="#59B722"/>
<path d="M33.5241 21.3334C33.9449 21.3334 34.286 20.9923 34.286 20.5715C34.286 20.1507 33.9449 19.8096 33.5241 19.8096C33.1033 19.8096 32.7622 20.1507 32.7622 20.5715C32.7622 20.9923 33.1033 21.3334 33.5241 21.3334Z" fill="#59B722"/>
<path d="M30.1242 35.1079L23.453 36.5903C23.3554 36.612 23.2629 36.6527 23.181 36.7101C23.099 36.7676 23.0292 36.8406 22.9755 36.925C22.9218 37.0094 22.8852 37.1036 22.8678 37.2021C22.8505 37.3007 22.8528 37.4016 22.8745 37.4993C22.8962 37.597 22.9369 37.6895 22.9943 37.7714C23.0517 37.8533 23.1247 37.9232 23.2092 37.9769C23.2936 38.0306 23.3877 38.0672 23.4863 38.0845C23.5848 38.1018 23.6858 38.0996 23.7835 38.0779L30.6407 36.5541C30.7628 36.5269 30.8763 36.4701 30.9714 36.3888L36.3047 31.8173C36.3195 31.8046 36.3338 31.7914 36.3476 31.7776L39.3952 28.73C39.466 28.6592 39.5221 28.5752 39.5604 28.4828C39.5987 28.3903 39.6184 28.2912 39.6184 28.1912C39.6184 28.0911 39.5987 27.9921 39.5604 27.8996C39.5221 27.8072 39.466 27.7232 39.3952 27.6524C38.6536 26.9126 37.6514 26.4932 36.6039 26.4845C35.5564 26.4758 34.5473 26.8784 33.7936 27.6059L28.6523 31.2783L24.5061 31.9692C23.0674 31.2261 15.5523 27.4293 12.1896 27.4293C11.9876 27.4293 11.7938 27.5096 11.6509 27.6524C11.508 27.7953 11.4277 27.9891 11.4277 28.1912C11.4277 28.3933 11.508 28.5871 11.6509 28.7299C11.7938 28.8728 11.9876 28.9531 12.1896 28.9531C14.9065 28.9531 21.6545 32.1898 24.0254 33.4369C24.1727 33.5144 24.3413 33.5416 24.5054 33.5142L29.0769 32.7523C29.1914 32.7332 29.3 32.6882 29.3945 32.6207L34.7279 28.8112C34.762 28.7868 34.7941 28.7596 34.8238 28.73C35.1933 28.3614 35.6698 28.119 36.1853 28.0375C36.7007 27.956 37.2288 28.0395 37.694 28.2761L35.2908 30.6793L30.1242 35.1079Z" fill="#59B722"/>
<path d="M47.9201 38.5167C47.4086 37.4932 46.5714 36.6689 45.5401 36.1732C44.5089 35.6776 43.3422 35.5388 42.2235 35.7788C42.1247 35.7988 42.031 35.8383 41.9476 35.8948C41.8642 35.9513 41.7928 36.0238 41.7377 36.1081C41.6825 36.1924 41.6446 36.2868 41.6261 36.3858C41.6076 36.4849 41.609 36.5866 41.6301 36.6851C41.6512 36.7836 41.6916 36.8769 41.7491 36.9597C41.8065 37.0425 41.8797 37.113 41.9646 37.1673C42.0495 37.2216 42.1443 37.2585 42.2435 37.2759C42.3427 37.2933 42.4444 37.2908 42.5427 37.2687C43.163 37.1357 43.8073 37.1673 44.4116 37.3604C45.0159 37.5534 45.5592 37.9012 45.9875 38.3692L34.1112 41.1635C34.0133 41.1858 33.9207 41.2274 33.8389 41.2857C33.7571 41.344 33.6876 41.4179 33.6344 41.5031C33.5812 41.5884 33.5455 41.6833 33.5292 41.7825C33.5128 41.8816 33.5163 41.983 33.5393 42.0808C33.5623 42.1786 33.6045 42.2709 33.6633 42.3523C33.7221 42.4338 33.7965 42.5028 33.8821 42.5554C33.9677 42.608 34.0629 42.6431 34.1621 42.6588C34.2614 42.6745 34.3627 42.6704 34.4604 42.6467L47.4128 39.5991C47.5247 39.5727 47.6292 39.5214 47.7185 39.4489C47.8078 39.3764 47.8795 39.2847 47.9282 39.1806C47.977 39.0764 48.0015 38.9626 48.0001 38.8476C47.9986 38.7327 47.9711 38.6195 47.9197 38.5167H47.9201Z" fill="#59B722"/>
<path d="M14.325 25.2567C16.5308 25.7662 18.4698 26.6958 20.0908 28.0186C20.6489 28.4748 21.6546 29.2434 23.166 30.3672C23.2967 30.4655 23.4559 30.5183 23.6194 30.5177C23.7797 30.518 23.936 30.4678 24.0661 30.3741C24.1962 30.2804 24.2935 30.1481 24.344 29.996C24.3946 29.8438 24.3958 29.6796 24.3476 29.5267C24.2994 29.3738 24.2042 29.24 24.0756 29.1444C23.0622 28.391 21.7155 27.3796 21.0546 26.8386C19.2517 25.3653 17.1022 24.3339 14.6679 23.772C14.6114 23.7586 14.5536 23.7519 14.4955 23.752C14.3081 23.7517 14.1271 23.8205 13.9873 23.9452C13.8474 24.0699 13.7584 24.2419 13.7373 24.4281C13.7162 24.6143 13.7645 24.8018 13.8729 24.9547C13.9813 25.1075 14.1423 25.2151 14.325 25.2567Z" fill="#59B722"/>
<path d="M0.76115 26.6668C0.841732 26.667 0.92181 26.6541 0.998294 26.6287L3.2764 25.884C4.97413 25.3569 6.72465 25.018 8.49643 24.8735C8.69799 24.8574 8.88493 24.762 9.01612 24.6081C9.1473 24.4543 9.21199 24.2546 9.19595 24.053C9.17992 23.8514 9.08446 23.6645 8.93059 23.5333C8.77672 23.4021 8.57704 23.3374 8.37547 23.3535C6.49103 23.5086 4.62917 23.8691 2.82307 24.4287L0.524006 25.1811C0.351937 25.2377 0.205644 25.3537 0.111362 25.5083C0.0170806 25.663 -0.0190232 25.8462 0.00952569 26.025C0.0380746 26.2039 0.129409 26.3667 0.267149 26.4843C0.404889 26.602 0.580025 26.6667 0.76115 26.6668Z" fill="#59B722"/>
<path d="M11.4337 24.8434C11.4489 24.8444 11.4651 24.8453 11.4823 24.8453C11.6841 24.8468 11.8784 24.769 12.0233 24.6285C12.1682 24.488 12.252 24.2962 12.2568 24.0945C12.2615 23.8927 12.1867 23.6972 12.0485 23.5501C11.9103 23.403 11.7199 23.3161 11.5182 23.3082C11.3166 23.3003 11.1199 23.372 10.9706 23.5078C10.8214 23.6436 10.7315 23.8327 10.7204 24.0342C10.7093 24.2357 10.7779 24.4335 10.9113 24.5849C11.0448 24.7363 11.2324 24.8291 11.4337 24.8434Z" fill="#59B722"/>
<path d="M41.1992 43.153L39.0983 42.4527C38.9066 42.3888 38.6974 42.4037 38.5166 42.4941C38.3359 42.5844 38.1984 42.7429 38.1345 42.9346C38.0706 43.1263 38.0855 43.3355 38.1759 43.5163C38.2662 43.697 38.4247 43.8345 38.6164 43.8984L40.7173 44.5986C41.214 44.7643 41.6352 45.1021 41.9046 45.5512C42.1739 46.0003 42.2738 46.5309 42.186 47.0471L27.0739 42.2109L34.6012 38.7895C34.6158 38.7828 34.6303 38.7757 34.6445 38.7681L46.0731 32.6729C46.1701 32.6212 46.2547 32.5491 46.3212 32.4615C46.3877 32.374 46.4345 32.2732 46.4583 32.1659C46.4821 32.0586 46.4825 31.9474 46.4593 31.84C46.4361 31.7325 46.39 31.6314 46.324 31.5434C45.5759 30.5451 44.501 29.8412 43.2868 29.5545C42.0727 29.2679 40.7964 29.4168 39.6808 29.9752C39.5005 30.0658 39.3635 30.2242 39.2999 30.4157C39.2363 30.6072 39.2513 30.8161 39.3415 30.9966C39.4318 31.1771 39.5899 31.3144 39.7812 31.3784C39.9726 31.4424 40.1815 31.4279 40.3622 31.3381C41.0189 31.0095 41.7567 30.878 42.4865 30.9597C43.2162 31.0414 43.9067 31.3327 44.4745 31.7984L33.9487 37.4121L25.7398 41.1435H21.5056L5.66089 33.5984C5.55857 33.5497 5.44668 33.5244 5.33336 33.5244H0.761909C0.559838 33.5244 0.366043 33.6047 0.223158 33.7476C0.0802723 33.8904 0 34.0842 0 34.2863C0 34.4884 0.0802723 34.6822 0.223158 34.8251C0.366043 34.968 0.559838 35.0482 0.761909 35.0482H5.16117L21.0059 42.5933C21.1082 42.642 21.2201 42.6673 21.3334 42.6673H23.5002L42.4347 48.7264C42.6079 48.7818 42.7951 48.7734 42.9627 48.7028C43.1302 48.6322 43.267 48.5041 43.3483 48.3414C43.5864 47.8651 43.7194 47.3432 43.7383 46.811C43.7572 46.2788 43.6615 45.7488 43.4577 45.2568C43.2539 44.7648 42.9468 44.3224 42.5571 43.9594C42.1675 43.5964 41.7043 43.3214 41.1992 43.153Z" fill="#59B722"/>
</svg>
