<svg width="46" height="51" viewBox="0 0 46 51" fill="none" xmlns="http://www.w3.org/2000/svg">
<path d="M1.09379 48.0134C1.09379 48.0336 1.10345 48.0506 1.10527 48.0703C1.10923 48.1138 1.11795 48.1543 1.13071 48.1961C1.14265 48.2351 1.15595 48.2714 1.17484 48.3068C1.19325 48.3419 1.2154 48.3728 1.24048 48.4042C1.26821 48.4389 1.29733 48.4693 1.33161 48.4975C1.34661 48.5099 1.35503 48.5271 1.37143 48.5383C2.97986 49.6346 6.04285 50.3983 7.78591 50.3983C10.4475 50.3983 12.9069 49.5383 14.9209 48.0944L16.8195 49.9637C17.3679 50.5032 18.096 50.787 18.8337 50.787C19.2611 50.787 19.6917 50.6918 20.0919 50.496L20.7988 50.1501C21.2403 49.9342 21.5511 49.5154 21.6302 49.0306C21.709 48.5451 21.5471 48.0497 21.1968 47.7051L18.1405 44.6964C19.356 42.7911 20.0705 40.5364 20.0705 38.1138C20.0705 31.34 14.5596 25.8292 7.78591 25.8292C6.59801 25.8292 5.42399 26.0126 4.28525 26.3551C3.69838 25.4741 4.02689 24.6248 4.30134 24.173C5.43454 24.5121 6.60464 24.6836 7.78591 24.6836C14.5596 24.6836 20.0705 19.1728 20.0705 12.3991C20.0705 10.0579 19.4003 7.87552 18.2591 6.01144L21.1968 3.1198C21.5471 2.77485 21.709 2.27945 21.6302 1.79397C21.5511 1.30912 21.2403 0.890336 20.7988 0.674431L20.0919 0.328549C19.0009 -0.204078 17.6859 0.00872462 16.8195 0.860866L15.1008 2.55301C13.0544 1.02865 10.528 0.114506 7.78591 0.114506C6.00842 0.114506 3.15823 0.759738 1.3767 1.95497C1.35937 1.9666 1.35026 1.98467 1.33444 1.99766C1.30047 2.02546 1.27135 2.05517 1.24374 2.08933C1.2183 2.12093 1.19628 2.1523 1.17755 2.18755C1.15859 2.22283 1.14478 2.2587 1.13272 2.29759C1.1197 2.33959 1.11128 2.38038 1.10717 2.42412C1.10523 2.44436 1.09534 2.46189 1.09534 2.48263V22.018C0.630963 22.6458 0 23.8678 0 25.2826C0 26.6938 0.630033 27.916 1.09379 28.5448V48.0134ZM20.3053 48.6106C20.3847 48.6884 20.3838 48.7793 20.376 48.8262C20.3683 48.8733 20.3407 48.9599 20.2405 49.0086L19.5335 49.3545C18.9252 49.6523 18.1931 49.5322 17.711 49.0582L15.9199 47.2947C16.4544 46.8206 16.9497 46.3049 17.395 45.7453L20.3053 48.6106ZM17.711 1.76667C18.1931 1.29206 18.9252 1.172 19.5335 1.47011L20.2405 1.816C20.3407 1.8647 20.3683 1.95125 20.376 1.9984C20.3838 2.04524 20.3847 2.13613 20.3053 2.2143L17.5293 4.947C17.0937 4.3789 16.6108 3.85166 16.0846 3.36777L17.711 1.76667ZM18.7999 12.3991C18.7999 18.4723 13.8592 23.413 7.78591 23.413C6.58789 23.413 5.40289 23.2157 4.26288 22.827C4.02185 22.7442 3.75352 22.8149 3.58321 23.0057C2.87892 23.7973 1.97319 25.7544 3.57174 27.5065C3.57383 27.5088 3.57561 27.5113 3.57771 27.5137C3.57883 27.5149 3.57961 27.5162 3.58073 27.5174C3.58934 27.5267 3.60144 27.5298 3.61047 27.5385C3.6627 27.5891 3.71982 27.6329 3.78528 27.6628C3.81583 27.6768 3.84829 27.6795 3.88035 27.6884C3.92898 27.7021 3.97613 27.7169 4.02739 27.7186C4.03472 27.7188 4.04151 27.723 4.04884 27.723C4.09513 27.723 4.14 27.708 4.18548 27.6979C4.20848 27.6928 4.23135 27.6967 4.25419 27.6889C5.39607 27.298 6.58448 27.0998 7.78591 27.0998C13.8592 27.0998 18.7999 32.0405 18.7999 38.1138C18.7999 44.187 13.8592 49.1277 7.78591 49.1277C6.20385 49.1277 3.69706 48.4308 2.36441 47.652V28.3248C2.36441 28.1738 2.31074 28.0276 2.21271 27.9129C1.887 27.5304 1.27061 26.4884 1.27061 25.2826C1.27061 24.0281 1.95121 22.9579 2.21333 22.6517C2.31198 22.5367 2.36596 22.3899 2.36596 22.2385V2.84445C3.90304 1.93011 6.26609 1.38512 7.78591 1.38512C13.8592 1.38512 18.7999 6.3258 18.7999 12.3991Z" fill="#59B722"/>
<path d="M12.2292 10.4372C12.3533 10.5612 12.5159 10.6233 12.6784 10.6233C12.841 10.6233 13.0035 10.5612 13.1276 10.4372C13.3758 10.189 13.3758 9.78697 13.1276 9.5388L11.302 7.71322C11.0539 7.46506 10.6518 7.46506 10.4037 7.71322C10.1555 7.96139 10.1555 8.36342 10.4037 8.61159L12.2292 10.4372Z" fill="#59B722"/>
<path d="M11.3097 13.5134C11.4723 13.5134 11.6348 13.4514 11.7589 13.3273C12.0071 13.0791 12.0071 12.6771 11.7589 12.4289L8.40773 9.07773C8.15956 8.82956 7.75753 8.82956 7.50937 9.07773C7.2612 9.32589 7.2612 9.72792 7.50937 9.97609L10.8605 13.3273C10.9846 13.4513 11.1472 13.5134 11.3097 13.5134Z" fill="#59B722"/>
<path d="M4.31482 20.6545C5.52711 21.2156 6.81044 21.5001 8.12914 21.5001C13.1474 21.5001 17.23 17.4175 17.23 12.3992C17.23 7.38099 13.1474 3.29834 8.12914 3.29834C6.80982 3.29834 5.52649 3.5828 4.31482 4.14397C4.08992 4.24789 3.94629 4.47279 3.94629 4.72033V20.0778C3.94629 20.3253 4.08992 20.5502 4.31482 20.6545ZM5.2169 5.13725C6.15032 4.76004 7.12809 4.56895 8.12914 4.56895C12.4466 4.56895 15.9594 8.08175 15.9594 12.3992C15.9594 16.7167 12.4466 20.2295 8.12914 20.2295C7.1284 20.2295 6.15063 20.0384 5.2169 19.6609V5.13725Z" fill="#59B722"/>
<path d="M4.31482 46.3688C5.52711 46.93 6.81044 47.2145 8.12914 47.2145C13.1474 47.2145 17.23 43.1318 17.23 38.1136C17.23 33.0953 13.1474 29.0127 8.12914 29.0127C6.81075 29.0127 5.52742 29.2972 4.31482 29.858C4.09023 29.9619 3.94629 30.1871 3.94629 30.4347V45.7922C3.94629 46.0397 4.08992 46.2646 4.31482 46.3688ZM5.2169 30.8516C6.15094 30.4744 7.12871 30.2833 8.12914 30.2833C12.4466 30.2833 15.9594 33.7961 15.9594 38.1136C15.9594 42.4311 12.4466 45.9438 8.12914 45.9438C7.1284 45.9438 6.15063 45.7528 5.2169 45.3752V30.8516Z" fill="#59B722"/>
<path d="M27.2608 42.2559C27.3377 43.3988 28.1952 44.324 29.3063 44.5701V48.2476C29.3063 49.6687 30.5003 50.8245 31.9679 50.8245H38.0796C39.5469 50.8245 40.7409 49.6687 40.7409 48.2476V44.57C41.8518 44.324 42.7093 43.3988 42.7867 42.2565L45.3233 5.34333C45.3242 5.32906 45.3248 5.31448 45.3248 5.2999V0.635306C45.3248 0.284461 45.0404 0 44.6895 0H25.358C25.0071 0 24.7227 0.284461 24.7227 0.635306L24.7242 5.34333L27.2608 42.2559ZM38.0796 49.5539H31.9679C31.201 49.5539 30.5769 48.9679 30.5769 48.2476V44.6396H39.4703V48.2476C39.4703 48.9679 38.8464 49.5539 38.0796 49.5539ZM41.5192 42.1703C41.4736 42.8425 40.8758 43.3689 40.1583 43.3689H29.8889C29.1714 43.3689 28.5736 42.8425 28.5283 42.1697L26.0657 6.35306H43.9803L41.5192 42.1703ZM44.0542 1.27061V5.08245H25.9933V1.27061H44.0542Z" fill="#59B722"/>
<path d="M40.5412 17.7573C39.591 17.7573 39.0832 18.2447 38.7122 18.6005C38.3942 18.9057 38.2019 19.09 37.7629 19.09C37.3234 19.09 37.131 18.9057 36.8125 18.6005C36.4414 18.2447 35.9333 17.7573 34.9832 17.7573C34.0327 17.7573 33.5243 18.2447 33.1532 18.6002C32.8347 18.9057 32.6423 19.09 32.2025 19.09C31.7626 19.09 31.5703 18.9057 31.2517 18.6005C30.8803 18.2447 30.3722 17.7573 29.4214 17.7573C29.0706 17.7573 28.7861 18.0418 28.7861 18.3926C28.7861 18.7435 29.0706 19.0279 29.4214 19.0279C29.8616 19.0279 30.054 19.2122 30.3725 19.5178C30.7439 19.8733 31.252 20.3606 32.2025 20.3606C33.1529 20.3606 33.6614 19.8733 34.0324 19.5178C34.351 19.2122 34.5433 19.0279 34.9832 19.0279C35.4227 19.0279 35.6147 19.2122 35.9333 19.5174C36.3043 19.8733 36.8125 20.3606 37.7629 20.3606C38.7131 20.3606 39.2209 19.8733 39.5919 19.5174C39.9099 19.2122 40.1022 19.0279 40.5412 19.0279C40.892 19.0279 41.1765 18.7435 41.1765 18.3926C41.1765 18.0418 40.892 17.7573 40.5412 17.7573Z" fill="#59B722"/>
<path d="M40.5412 13.833C39.591 13.833 39.0832 14.3203 38.7122 14.6765C38.3939 14.9817 38.2019 15.166 37.7629 15.166C37.3234 15.166 37.131 14.9817 36.8128 14.6762C36.4414 14.3203 35.9333 13.833 34.9832 13.833C34.0327 13.833 33.5243 14.3203 33.1532 14.6762C32.8347 14.9817 32.6423 15.166 32.2025 15.166C31.7626 15.166 31.5703 14.9817 31.2517 14.6762C30.8807 14.3203 30.3722 13.833 29.4214 13.833C29.0706 13.833 28.7861 14.1175 28.7861 14.4683C28.7861 14.8192 29.0706 15.1036 29.4214 15.1036C29.8616 15.1036 30.054 15.2879 30.3725 15.5934C30.7435 15.9492 31.252 16.4366 32.2025 16.4366C33.1529 16.4366 33.6614 15.9492 34.0324 15.5934C34.351 15.2879 34.5433 15.1036 34.9832 15.1036C35.4227 15.1036 35.6147 15.2879 35.933 15.5931C36.3043 15.9492 36.8125 16.4366 37.7629 16.4366C38.7131 16.4366 39.2209 15.9492 39.5919 15.5931C39.9102 15.2879 40.1022 15.1036 40.5412 15.1036C40.892 15.1036 41.1765 14.8192 41.1765 14.4683C41.1765 14.1175 40.892 13.833 40.5412 13.833Z" fill="#59B722"/>
<path d="M40.5412 9.9082C39.591 9.9082 39.0832 10.3955 38.7122 10.7517C38.3939 11.0569 38.2019 11.2412 37.7629 11.2412C37.3234 11.2412 37.131 11.0569 36.8128 10.7513C36.4414 10.3955 35.9333 9.9082 34.9832 9.9082C34.0327 9.9082 33.5243 10.3955 33.1532 10.7513C32.8347 11.0569 32.6423 11.2412 32.2025 11.2412C31.7626 11.2412 31.5703 11.0569 31.2517 10.7513C30.8807 10.3955 30.3722 9.9082 29.4214 9.9082C29.0706 9.9082 28.7861 10.1927 28.7861 10.5435C28.7861 10.8944 29.0706 11.1788 29.4214 11.1788C29.8616 11.1788 30.054 11.3631 30.3725 11.6686C30.7435 12.0244 31.252 12.5118 32.2025 12.5118C33.1529 12.5118 33.6614 12.0244 34.0324 11.6686C34.351 11.3631 34.5433 11.1788 34.9832 11.1788C35.4227 11.1788 35.6147 11.3631 35.933 11.6683C36.3043 12.0244 36.8125 12.5118 37.7629 12.5118C38.7131 12.5118 39.2209 12.0244 39.5919 11.6683C39.9102 11.3631 40.1022 11.1788 40.5412 11.1788C40.892 11.1788 41.1765 10.8944 41.1765 10.5435C41.1765 10.1927 40.892 9.9082 40.5412 9.9082Z" fill="#59B722"/>
</svg>
