<svg width="43" height="54" viewBox="0 0 43 54" fill="none" xmlns="http://www.w3.org/2000/svg">
<path d="M19.4509 31.0181H17.6826V39.6343H19.4509V31.0181Z" fill="#59B722"/>
<path d="M24.7556 34.4648H22.9873V44.8042H24.7556V34.4648Z" fill="#59B722"/>
<path d="M42.1799 14.9L38.9024 11.7059V0.861618C38.9024 0.385789 38.5065 0 38.0182 0H27.4085C26.9202 0 26.5243 0.385789 26.5243 0.861618V11.7059L23.2468 14.9C23.081 15.0615 22.9878 15.2806 22.9878 15.5091V22.4021C22.9878 23.8296 24.1753 24.9869 25.6402 24.9869C25.9421 24.984 26.2412 24.9305 26.5243 24.8284V30.1566C26.5179 31.578 27.6951 32.7353 29.1536 32.7417C29.8161 32.7446 30.4556 32.5046 30.9451 32.0694C31.9446 32.9655 33.4821 32.9655 34.4816 32.0694C34.8687 32.4095 35.3505 32.6302 35.8662 32.7036C34.9487 35.2063 34.4803 37.8444 34.4816 40.5021V43.7538C34.4808 46.2543 34.8945 48.7385 35.7071 51.1103L35.9069 51.6971H6.53207L6.73189 51.1103C7.54442 48.7385 7.9582 46.2543 7.95731 43.7538V40.5021C7.95875 37.8443 7.49015 35.2061 6.57186 32.7036C7.08798 32.6308 7.57028 32.4101 7.95731 32.0694C8.95684 32.9655 10.4944 32.9655 11.4939 32.0694C12.5714 33.0273 14.2418 32.9526 15.2248 31.9025C15.6713 31.4255 15.9175 30.8023 15.9146 30.1566V24.8284C16.1978 24.9304 16.4968 24.984 16.7988 24.9869C18.2637 24.9869 19.4512 23.8296 19.4512 22.4021V15.5091C19.4512 15.2806 19.3579 15.0615 19.1921 14.9L15.9146 11.7059V0.861618C15.9146 0.385789 15.5187 0 15.0305 0H4.42074C3.93247 0 3.53659 0.385789 3.53659 0.861618V11.7059L0.25907 14.9C0.0932931 15.0615 1.56689e-05 15.2806 1.56689e-05 15.5091V28.4334C-0.00495764 29.8562 1.1746 31.0135 2.63465 31.0183C2.97892 31.0195 3.3202 30.955 3.63915 30.8287C3.78758 31.3609 4.10742 31.8327 4.55159 32.1745L4.4844 32.2004L4.60818 32.5019C5.65467 35.0458 6.19124 37.7615 6.18903 40.5021V43.7538C6.18958 46.0691 5.80685 48.3693 5.05555 50.5658L4.46671 52.289C4.31387 52.7409 4.56596 53.228 5.02969 53.377C5.11855 53.4055 5.21138 53.4201 5.30488 53.4203H37.1341C37.6223 53.42 38.0179 53.0339 38.0176 52.558C38.0174 52.4657 38.0022 52.374 37.9722 52.2864L37.3834 50.5632C36.6324 48.3675 36.2497 46.0682 36.2499 43.7538V40.5021C36.2477 37.7618 36.7841 35.0465 37.8299 32.5028L37.9546 32.2004L37.8874 32.1745C38.3315 31.8327 38.6514 31.3609 38.7998 30.8287C40.1523 31.3645 41.6945 30.7303 42.2443 29.4123C42.374 29.1015 42.44 28.7689 42.4389 28.4334V15.5091C42.4389 15.2806 42.3457 15.0615 42.1799 14.9ZM5.30488 30.1566V22.4021H3.53659V28.4334C3.53659 28.9092 3.14072 29.295 2.65245 29.295C2.16418 29.295 1.7683 28.9092 1.7683 28.4334V15.8658L5.04583 12.6718C5.2116 12.5103 5.30488 12.2912 5.30488 12.0626V1.72324H14.1463V12.0626C14.1463 12.2912 14.2396 12.5103 14.4054 12.6718L17.6829 15.8658V22.4021C17.6829 22.8779 17.287 23.2637 16.7988 23.2637C16.3105 23.2637 15.9146 22.8779 15.9146 22.4021V18.9556H14.1463V30.1566C14.1463 30.6324 13.7504 31.0182 13.2622 31.0182C12.7739 31.0182 12.378 30.6324 12.378 30.1566V22.4021H10.6097V30.1566C10.6097 30.6324 10.2139 31.0182 9.7256 31.0182C9.23733 31.0182 8.84146 30.6324 8.84146 30.1566V22.4021H7.07317V30.1566C7.07317 30.6324 6.67729 31.0182 6.18903 31.0182C5.70076 31.0182 5.30488 30.6324 5.30488 30.1566ZM40.6707 28.4334C40.6707 28.9092 40.2748 29.295 39.7865 29.295C39.2982 29.295 38.9024 28.9092 38.9024 28.4334V22.4021H37.1341V30.1566C37.1341 30.6324 36.7382 31.0182 36.2499 31.0182C35.7617 31.0182 35.3658 30.6324 35.3658 30.1566V22.4021H33.5975V30.1566C33.5975 30.6324 33.2016 31.0182 32.7134 31.0182C32.2251 31.0182 31.8292 30.6324 31.8292 30.1566V22.4021H30.0609V30.1566C30.0609 30.6324 29.665 31.0182 29.1768 31.0182C28.6885 31.0182 28.2926 30.6324 28.2926 30.1566V18.9556H26.5243V22.4021C26.5243 22.8779 26.1285 23.2637 25.6402 23.2637C25.1519 23.2637 24.7561 22.8779 24.7561 22.4021V15.8658L28.0336 12.6718C28.1994 12.5103 28.2926 12.2912 28.2926 12.0626V1.72324H37.1341V12.0626C37.1341 12.2912 37.2274 12.5103 37.3931 12.6718L40.6707 15.8658V28.4334Z" fill="#59B722"/>
</svg>
