<svg width="31" height="31" viewBox="0 0 31 31" fill="none" xmlns="http://www.w3.org/2000/svg">
<g clip-path="url(#clip0)">
<path d="M26.4585 4.53771C20.4045 -1.5145 10.5904 -1.51305 4.53819 4.54104C-1.51401 10.5951 -1.51256 20.4092 4.54152 26.4614C10.5956 32.5136 20.4096 32.5121 26.4619 26.458C29.3685 23.5505 31.0009 19.6074 31 15.4962C30.9992 11.3857 29.3656 7.44383 26.4585 4.53771ZM23.4742 21.5909C23.4736 21.5915 23.4729 21.5922 23.4722 21.5929V21.5878L22.6868 22.3679C21.6711 23.3964 20.1919 23.8196 18.786 23.4839C17.3695 23.1048 16.0229 22.5012 14.7973 21.6963C13.6587 20.9686 12.6035 20.1179 11.6508 19.1594C10.7743 18.2893 9.98681 17.3339 9.29996 16.3074C8.5487 15.2029 7.95407 13.9997 7.53296 12.7321C7.05022 11.2428 7.45026 9.60875 8.56632 8.51091L9.48596 7.59127C9.74165 7.33443 10.1571 7.33352 10.4139 7.58921C10.4146 7.58987 10.4153 7.59054 10.416 7.59127L13.3196 10.4949C13.5765 10.7506 13.5774 11.1661 13.3217 11.4229C13.321 11.4235 13.3203 11.4242 13.3196 11.4249L11.6146 13.1299C11.1254 13.6138 11.0639 14.3828 11.47 14.9383C12.0866 15.7846 12.7691 16.581 13.5108 17.3201C14.3378 18.1507 15.2369 18.9063 16.1975 19.578C16.7525 19.9651 17.505 19.8998 17.9851 19.423L19.6333 17.749C19.8889 17.4921 20.3044 17.4912 20.5612 17.7469C20.5619 17.7476 20.5625 17.7482 20.5633 17.749L23.4721 20.663C23.729 20.9186 23.7299 21.334 23.4742 21.5909Z" fill="#59B722"/>
</g>
<defs>
<clipPath id="clip0">
<rect width="31" height="31" fill="white"/>
</clipPath>
</defs>
</svg>
