<svg width="52" height="49" viewBox="0 0 52 49" fill="none" xmlns="http://www.w3.org/2000/svg">
<path d="M36.1775 45.1566H15.4309C9.59916 45.1566 4.74797 40.4093 4.18028 34.0794C4.18028 34.0229 4.18028 33.9664 4.18028 33.9099H2.06434C0.928951 33.9099 0 32.8926 0 31.5927C0 30.3493 0.928951 29.332 2.06434 29.332H49.4925C50.6278 29.332 51.6084 30.3493 51.6084 31.5927C51.6084 32.8361 50.6795 33.9099 49.4925 33.9099H47.4281C47.4281 33.9664 47.4281 34.0229 47.4281 34.0794C46.8604 40.4093 42.0092 45.1566 36.1775 45.1566ZM2.06434 30.6319C1.54825 30.6319 1.13539 31.084 1.13539 31.6492C1.13539 32.2144 1.54825 32.6665 2.06434 32.6665H5.26406V33.2882C5.26406 33.2882 5.26406 33.5142 5.31567 33.9664C5.83175 39.618 10.1669 43.8568 15.4309 43.8568H36.1775C41.4416 43.8568 45.7767 39.618 46.2927 33.9664C46.3443 33.5708 46.3444 33.2882 46.3444 33.2882V32.6665H49.5441C50.0602 32.6665 50.473 32.2144 50.473 31.6492C50.473 31.084 50.0602 30.6319 49.5441 30.6319H2.06434Z" fill="#59B722"/>
<path d="M35.5588 48.9999H16.0508C14.5542 48.9999 13.3672 47.6435 13.3672 46.061V44.422C13.3672 44.0829 13.6252 43.8003 13.9349 43.8003C14.2445 43.8003 14.5026 44.0829 14.5026 44.422V46.061C14.5026 46.9652 15.1735 47.7565 16.0508 47.7565H35.6104C36.4361 47.7565 37.1587 47.0218 37.1587 46.061V44.422C37.1587 44.0829 37.4167 43.8003 37.7264 43.8003C38.036 43.8003 38.2941 44.0829 38.2941 44.422V46.061C38.2941 47.7 37.0555 48.9999 35.5588 48.9999Z" fill="#59B722"/>
<path d="M6.7615 22.4371C6.70989 22.4371 6.60667 22.4371 6.55507 22.3805C5.41968 21.9284 3.40695 20.7981 2.27156 18.6505L1.96191 18.0853L2.478 17.8027C2.58122 17.7462 4.23269 16.7855 6.50346 16.5594C5.83255 15.3726 4.69716 13.338 4.23269 12.2642L3.92304 11.473L4.69716 11.3599C5.47129 11.2469 6.03898 10.5687 6.1422 9.77748C6.19381 9.43838 6.24542 9.04277 6.24542 8.53413L6.29702 7.62987L8.0001 8.59064C8.72262 8.98625 9.59996 8.76019 10.0644 8.082L10.5805 7.40381L11.045 8.13852C11.8191 9.38187 12.5933 11.4164 13.0577 12.7163C14.5028 10.5122 16.2575 9.4949 16.3091 9.43838L16.8251 9.1558L17.0832 9.72096C18.6314 12.7163 17.6509 16.2768 17.5993 16.4464C17.4961 16.7855 17.1864 16.955 16.8768 16.842C16.5671 16.7289 16.4123 16.3898 16.5155 16.0507C16.5155 15.9942 17.238 13.338 16.3607 10.9643C15.6382 11.5295 14.3479 12.6598 13.419 14.5248L12.7997 15.8247L12.3868 14.4683C12.3868 14.4118 11.4579 11.5295 10.4773 9.60793C9.65157 10.2861 8.51619 10.3992 7.53563 9.83399L7.32919 9.72096C7.32919 9.83399 7.27758 9.94703 7.27758 10.0601C7.17437 11.1904 6.50346 12.0946 5.57451 12.5468C6.40024 14.2422 8.0001 16.8985 8.0001 16.955L8.5678 17.9158H7.48402C5.78094 17.9158 4.3359 18.4244 3.56178 18.7635C4.54234 20.1764 6.03898 20.9676 6.86472 21.3632C7.17437 21.4763 7.32919 21.8719 7.22598 22.211C7.22598 22.2675 6.96793 22.4371 6.7615 22.4371Z" fill="#59B722"/>
<path d="M26.7856 27.5234C26.6823 27.5234 26.5275 27.4669 26.4243 27.4104C26.1663 27.1843 26.1147 26.7887 26.2695 26.5061C26.9404 25.4888 27.4049 24.3585 27.6629 23.1716C28.0758 21.024 27.8177 18.8198 26.8372 16.8983L22.3472 20.0067C22.8633 21.4196 22.3988 23.0586 21.1602 23.9064C19.7668 24.8671 17.9605 24.415 17.0832 22.8891C16.9284 22.6065 16.98 22.2108 17.238 21.9848C17.4961 21.8152 17.8573 21.8717 18.0637 22.1543C18.5798 23.0586 19.7152 23.3412 20.5409 22.776C21.3667 22.2108 21.6247 20.9675 21.1086 20.0632L20.799 19.498L27.25 15.0332L27.5597 15.5984C28.9015 17.9156 29.366 20.6849 28.7983 23.3412C28.5402 24.7541 27.9726 25.9975 27.25 27.1843C27.0952 27.4104 26.9404 27.5234 26.7856 27.5234Z" fill="#59B722"/>
<path d="M47.3253 24.5282C47.1189 24.5282 46.9125 24.4151 46.8092 24.1891L44.5385 19.6678C43.9708 19.8938 43.4031 19.8938 42.8354 19.7243C42.0613 19.4982 41.442 18.933 41.0291 18.1983C40.6162 17.4636 40.513 16.5594 40.7194 15.7681C40.8743 15.1464 41.1839 14.5813 41.6484 14.1857L39.0164 9.09918C37.3649 10.286 36.1779 12.0946 35.6618 14.2422C35.1457 16.2203 35.3006 18.3679 36.0747 20.2894C36.2295 20.6285 36.0747 20.9676 35.765 21.1372C35.4554 21.3067 35.1457 21.1372 34.9909 20.7981C34.1136 18.6505 33.9587 16.2203 34.5264 13.9031C35.1973 11.2468 36.7456 9.04266 38.9131 7.68627L39.4292 7.34717L43.1966 14.5813L42.6806 14.9204C42.2677 15.203 41.958 15.5986 41.8548 16.1072C41.7516 16.6159 41.8032 17.1245 42.0097 17.5766C42.2677 18.0288 42.629 18.3679 43.0934 18.4809C43.5579 18.5939 44.0224 18.5374 44.4353 18.3114L44.9513 17.9723L47.7898 23.5674C47.9446 23.85 47.8414 24.2456 47.5834 24.4151C47.5318 24.5282 47.4285 24.5282 47.3253 24.5282Z" fill="#59B722"/>
<path d="M17.8059 30.6321C17.4962 30.6321 17.2382 30.3495 17.2382 30.0104C17.2382 26.4498 14.6062 23.5675 11.3548 23.5675C8.10349 23.5675 5.47146 26.4498 5.47146 30.0104C5.47146 30.3495 5.21342 30.6321 4.90377 30.6321C4.59412 30.6321 4.33607 30.3495 4.33607 30.0104C4.28447 25.7151 7.43258 22.2676 11.3548 22.2676C15.2771 22.2676 18.4252 25.7151 18.4252 30.0104C18.4252 30.3495 18.1671 30.6321 17.8059 30.6321Z" fill="#59B722"/>
<path d="M11.3543 27.1283C11.0447 27.1283 10.7866 26.8457 10.7866 26.5066V25.6588C10.7866 25.3197 11.0447 25.0371 11.3543 25.0371C11.664 25.0371 11.922 25.3197 11.922 25.6588V26.5066C11.922 26.8457 11.664 27.1283 11.3543 27.1283Z" fill="#59B722"/>
<path d="M9.0833 28.2022C8.92848 28.2022 8.77365 28.1457 8.67043 28.0326L8.15434 27.4674C7.9479 27.2414 7.9479 26.7892 8.15434 26.5631C8.36078 26.337 8.77365 26.337 8.98008 26.5631L9.49618 27.1283C9.70261 27.3544 9.70261 27.8066 9.49618 28.0326C9.39296 28.0892 9.23813 28.2022 9.0833 28.2022Z" fill="#59B722"/>
<path d="M13.5735 28.202C13.4187 28.202 13.2639 28.1455 13.1607 28.0324C12.9543 27.8064 12.9543 27.3543 13.1607 27.1282L13.6768 26.5631C13.8832 26.337 14.2961 26.337 14.5025 26.5631C14.7089 26.7891 14.7089 27.2413 14.5025 27.4673L13.9864 28.0324C13.8832 28.0889 13.7284 28.202 13.5735 28.202Z" fill="#59B722"/>
<path d="M43.0933 30.6321C42.7837 30.6321 42.5257 30.3495 42.5257 30.0104C42.5257 26.4498 39.8936 23.5675 36.6423 23.5675C33.391 23.5675 30.7589 26.4498 30.7589 30.0104C30.7589 30.3495 30.5009 30.6321 30.1912 30.6321C29.8816 30.6321 29.6235 30.3495 29.6235 30.0104C29.6235 25.7151 32.7717 22.2676 36.6939 22.2676C40.6161 22.2676 43.7643 25.7151 43.7643 30.0104C43.661 30.3495 43.403 30.6321 43.0933 30.6321Z" fill="#59B722"/>
<path d="M36.5906 27.1283C36.281 27.1283 36.0229 26.8457 36.0229 26.5066V25.6588C36.0229 25.3197 36.281 25.0371 36.5906 25.0371C36.9003 25.0371 37.1583 25.3197 37.1583 25.6588V26.5066C37.1583 26.8457 36.9003 27.1283 36.5906 27.1283Z" fill="#59B722"/>
<path d="M34.3196 28.202C34.1648 28.202 34.01 28.1455 33.9068 28.0324L33.3907 27.4673C33.1842 27.2413 33.1842 26.7891 33.3907 26.5631C33.5971 26.337 34.01 26.337 34.2164 26.5631L34.7325 27.1282C34.9389 27.3543 34.9389 27.8064 34.7325 28.0324C34.6293 28.0889 34.4745 28.202 34.3196 28.202Z" fill="#59B722"/>
<path d="M38.8611 28.202C38.7063 28.202 38.5515 28.1455 38.4483 28.0324C38.2418 27.8064 38.2418 27.3543 38.4483 27.1282L38.9644 26.5631C39.1708 26.337 39.5837 26.337 39.7901 26.5631C39.9965 26.7891 39.9965 27.2413 39.7901 27.4673L39.274 28.0324C39.1708 28.0889 39.016 28.202 38.8611 28.202Z" fill="#59B722"/>
<path d="M12.2837 20.5722C12.0773 20.5722 11.8708 20.4592 11.7676 20.2331L10.0129 16.3334C9.85812 15.9943 10.0129 15.6552 10.271 15.4856C10.5806 15.3161 10.8903 15.4856 11.0451 15.7682L12.7998 19.6679C12.9546 20.007 12.7998 20.3461 12.5418 20.5157C12.4385 20.5157 12.3353 20.5722 12.2837 20.5722Z" fill="#59B722"/>
<path d="M28.5398 13.3944C28.3334 13.3944 28.1269 13.3944 27.9205 13.3379C26.5787 13.1683 25.4433 12.4336 24.824 11.3033C23.5338 8.98611 24.566 5.70817 27.1464 3.95616C28.385 3.10842 29.7784 2.76932 31.0686 2.93887C32.4104 3.10842 33.5458 3.84313 34.1651 4.97346C35.4553 7.29062 34.4232 10.5686 31.8428 12.3206C30.8106 13.0553 29.6752 13.3944 28.5398 13.3944ZM30.3977 4.18223C29.5204 4.18223 28.5398 4.46481 27.7141 5.08649C25.7014 6.44288 24.824 8.98611 25.8046 10.6816C26.269 11.4728 27.0432 11.9815 28.0753 12.151C29.1075 12.2641 30.2429 11.9815 31.2751 11.3033C33.2878 9.94689 34.1651 7.40366 33.1846 5.70817C32.7201 4.91694 31.946 4.40829 30.9138 4.23875C30.759 4.18223 30.6041 4.18223 30.3977 4.18223Z" fill="#59B722"/>
<path d="M33.3387 9.32604C32.1517 9.32604 31.0163 8.64783 30.397 7.51747C29.6229 6.16105 29.7261 4.409 30.6034 3.16562C30.8099 2.88303 31.1711 2.82651 31.4292 3.05258C31.6872 3.27865 31.7388 3.67428 31.5324 3.95686C30.9647 4.80463 30.8615 5.93498 31.3776 6.83926C31.8936 7.74355 32.8742 8.19569 33.8032 7.96962C34.1128 7.9131 34.4225 8.13917 34.4741 8.47827C34.5257 8.81738 34.3192 9.15649 34.0096 9.213C33.8032 9.32604 33.5967 9.32604 33.3387 9.32604Z" fill="#59B722"/>
<path d="M20.6434 14.977C20.4369 14.977 20.2821 14.8639 20.1789 14.6944C20.0241 14.4118 20.0757 14.0162 20.3337 13.7901L24.9785 10.4557C25.2365 10.2862 25.5978 10.3427 25.8042 10.6253C25.959 10.9078 25.9074 11.3035 25.6494 11.5295L21.0046 14.8639C20.8498 14.977 20.7466 14.977 20.6434 14.977Z" fill="#59B722"/>
<path d="M20.3864 12.6031C20.1799 12.6031 19.9735 12.4901 19.8703 12.2075C19.8187 12.151 16.9286 5.08647 21.5217 0.339098L21.8314 0L22.1927 0.282581C22.2959 0.339098 25.1859 2.20413 26.4245 5.82118C26.5278 6.16027 26.3729 6.49937 26.1149 6.66892C25.8052 6.78195 25.4956 6.6124 25.3408 6.32982C24.4634 3.89962 22.7087 2.31717 21.9862 1.69549C18.5284 5.76466 20.8508 11.4728 20.954 11.6989C21.1089 12.038 20.954 12.3771 20.6444 12.5466C20.5412 12.6031 20.4896 12.6031 20.3864 12.6031Z" fill="#59B722"/>
</svg>
