<svg width="36" height="22" viewBox="0 0 36 22" fill="none" xmlns="http://www.w3.org/2000/svg">
<path d="M18.2173 22C23.4252 22 21.5683 18.7763 21.9703 17.8493C21.9643 17.1571 21.9583 16.4912 21.9823 16.0864C22.3123 16.1773 23.0907 16.5631 24.6987 18.0913C27.1812 20.5407 27.8157 22 29.8212 22H33.5126C34.6826 22 35.2916 21.5263 35.5961 21.1288C35.8901 20.7445 36.1781 20.0699 35.8631 19.0197C35.0396 16.4912 30.2367 12.1249 29.9382 11.6644C29.9832 11.5793 30.0552 11.4664 30.0927 11.4077H30.0897C31.0377 10.1831 34.6556 4.88253 35.1881 2.76173C35.1896 2.7588 35.1911 2.7544 35.1911 2.75C35.4791 1.782 35.2151 1.15427 34.9421 0.799333C34.5311 0.2684 33.8771 0 32.9936 0H29.3022C28.0662 0 27.1287 0.608667 26.6547 1.71893C25.8612 3.6916 23.6322 7.7484 21.9613 9.18427C21.9103 7.15 21.9448 5.5968 21.9718 4.44253C22.0258 2.1912 22.1998 0 19.8103 0H14.0083C12.5114 0 11.0789 1.59867 12.6299 3.49653C13.9858 5.15973 13.1174 6.08667 13.4099 10.7008C12.2699 9.50547 10.2419 6.27733 8.8079 2.1516C8.40591 1.03547 7.79691 0.00146656 6.08243 0.00146656H2.39097C0.89399 0.00146656 0 0.799333 0 2.13547C0 5.13627 6.79343 22 18.2173 22ZM6.08243 2.20147C6.40793 2.20147 6.44093 2.20147 6.68243 2.87173C8.15091 7.10013 11.4449 13.3569 13.8508 13.3569C15.6583 13.3569 15.6583 11.5456 15.6583 10.8636L15.6568 5.434C15.5578 3.63733 14.8888 2.74267 14.4493 2.2L19.7113 2.20587C19.7143 2.2308 19.6813 8.21187 19.7263 9.66093C19.7263 11.7187 21.3973 12.8979 24.0057 10.3165C26.7582 7.27907 28.6617 2.73827 28.7382 2.55347C28.8507 2.28947 28.9482 2.2 29.3022 2.2H32.9936H33.0086C33.0071 2.2044 33.0071 2.2088 33.0056 2.2132C32.6681 3.7532 29.3367 8.66067 28.2222 10.1845C28.2042 10.208 28.1877 10.2329 28.1712 10.2579C27.6807 11.0411 27.2817 11.9064 28.2387 13.1237H28.2402C28.3272 13.2264 28.5537 13.4669 28.8837 13.8013C29.9097 14.8368 33.4286 18.3773 33.7406 19.7853C33.5336 19.8176 33.3086 19.7941 29.8212 19.8015C29.0787 19.8015 28.4982 18.7161 26.2827 16.5308C24.2907 14.6359 22.9977 13.8615 21.8203 13.8615C19.5343 13.8615 19.7008 15.6757 19.7218 17.8699C19.7293 20.2488 19.7143 19.4964 19.7308 19.646C19.5973 19.6973 19.2148 19.8 18.2173 19.8C8.69991 19.8 2.50197 5.0292 2.26348 2.20587C2.34597 2.19853 3.48146 2.20293 6.08243 2.20147Z" fill="white"/>
</svg>
